<svg xmlns="http://www.w3.org/2000/svg" width="1656" height="163.161" viewBox="0 0 1656 163.161">
  <g id="Group_119" data-name="Group 119" transform="translate(-92.119 -631.6)">
    <path id="Path_1" data-name="Path 1" d="M340.283,713.18c0,11.5-3.538,18.574-12.678,26.83L280.43,781.582c-9.14,8.255-18.279,12.679-32.137,12.679H92.619V632.1H248.293c13.858,0,23,4.718,32.137,12.677L327.6,686.35C336.745,694.311,340.283,701.682,340.283,713.18Zm-42.235-6.526a42.122,42.122,0,0,0-42.123-42.122H128v97.3H255.336a42.837,42.837,0,0,0,42.712-42.712Z" transform="translate(0 0)" fill="#4b4f53" stroke="rgba(0,0,0,0)" stroke-width="1"/>
    <path id="Path_2" data-name="Path 2" d="M926.347,713.18c0,11.5-3.537,18.574-12.678,26.83l-47.175,41.572c-9.14,8.255-18.279,12.679-32.137,12.679H678.683V632.1H834.358c13.858,0,23,4.718,32.137,12.677l47.175,41.573C922.81,694.311,926.347,701.682,926.347,713.18Zm-42.236-6.526a42.122,42.122,0,0,0-42.123-42.122H714.064v97.3H841.4a42.837,42.837,0,0,0,42.711-42.712Z" transform="translate(-26.947 0)" fill="#4b4f53" stroke="rgba(0,0,0,0)" stroke-width="1"/>
    <path id="Path_3" data-name="Path 3" d="M461.857,664.532H624.573V632.1H468.9c-13.858,0-23,4.423-32.137,12.679L389.587,686.35c-9.14,8.255-12.678,15.331-12.678,26.83s3.538,18.869,12.678,26.83l47.175,41.572c9.141,7.961,18.279,12.677,32.137,12.677H624.573V761.829H461.267A42.128,42.128,0,0,1,420.278,729.4h204.3V696.965H420.412A42.876,42.876,0,0,1,461.857,664.532Z" transform="translate(-13.071 0)" fill="#4b4f53" stroke="rgba(0,0,0,0)" stroke-width="1"/>
    <path id="Path_4" data-name="Path 4" d="M1802.768,686.35l-47.175-41.573c-9.139-7.961-18.279-12.677-32.137-12.677H1567.781V794.26h155.675c13.858,0,23-4.423,32.137-12.678l47.175-41.572c9.14-8.256,12.678-15.331,12.678-26.83S1811.908,694.311,1802.768,686.35Zm-71.68-21.818a42.13,42.13,0,0,1,40.989,32.433H1603.162V664.532Zm-.59,97.3H1603.162V729.4h168.782A42.877,42.877,0,0,1,1730.5,761.829Z" transform="translate(-67.827 0)" fill="#4b4f53" stroke="rgba(0,0,0,0)" stroke-width="1"/>
    <path id="Path_5" data-name="Path 5" d="M1478.29,632.1V761.829H1342.273a41.023,41.023,0,0,1-41.023-41.087l.138-88.642h-35.381v80.387c0,13.858,4.424,22.7,12.678,32.138l37.547,36.958c9.434,8.256,18.281,12.677,32.138,12.677h165.3V632.1Z" transform="translate(-53.951 0)" fill="#4b4f53" stroke="rgba(0,0,0,0)" stroke-width="1"/>
    <path id="Path_6" data-name="Path 6" d="M1050.6,632.1c-13.857,0-22.7,4.422-32.137,12.677l-37.547,36.959c-8.256,9.435-12.679,18.28-12.679,32.137V794.26h35.381V729.4h130.768c13.856,0,22.7-4.423,32.138-12.677l14-13.807V794.26H1215.9V632.1Zm90.942,64.865H1003.431a41.033,41.033,0,0,1,40.115-32.434h138.117A41.038,41.038,0,0,1,1141.54,696.965Z" transform="translate(-40.26 0)" fill="#4b4f53" stroke="rgba(0,0,0,0)" stroke-width="1"/>
  </g>
</svg>
